<?xml version="1.0" standalone="no"?>
<!DOCTYPE svg PUBLIC "-//W3C//DTD SVG 20010904//EN"
 "http://www.w3.org/TR/2001/REC-SVG-20010904/DTD/svg10.dtd">
<svg version="1.0" xmlns="http://www.w3.org/2000/svg"
 width="256.000000pt" height="256.000000pt" viewBox="0 0 256.000000 256.000000"
 preserveAspectRatio="xMidYMid meet">

<g transform="translate(0.000000,256.000000) scale(0.100000,-0.100000)"
fill="#000000" stroke="none">
<path d="M1170 2183 c-166 -44 -251 -81 -360 -158 -71 -49 -170 -145 -224
-215 -44 -57 -126 -195 -126 -211 0 -5 -4 -17 -9 -27 -15 -26 -49 -151 -58
-207 -10 -64 -10 -236 -1 -297 21 -133 64 -252 138 -373 118 -196 340 -370
545 -427 240 -67 385 -65 629 7 152 45 369 202 421 306 34 67 34 142 -1 211
-46 91 -122 138 -223 138 -69 0 -120 -23 -186 -81 -64 -56 -111 -89 -127 -89
-7 0 -26 -7 -43 -16 -48 -26 -228 -31 -302 -9 -119 36 -205 97 -283 201 -53
71 -80 162 -80 275 0 151 44 252 155 357 80 76 132 105 225 127 91 21 170 18
275 -9 44 -12 143 -73 190 -119 17 -16 54 -40 84 -54 117 -55 253 -2 319 126
23 43 31 154 13 165 -4 3 -11 18 -14 33 -6 30 -59 91 -121 138 -21 17 -49 39
-62 51 -62 52 -258 139 -337 150 -21 3 -50 9 -63 15 -40 14 -310 9 -374 -8z
m323 -89 c115 -17 174 -34 265 -76 55 -25 80 -48 52 -48 -5 0 -36 -26 -69 -58
-42 -42 -63 -70 -72 -102 -18 -64 -27 -74 -53 -57 -68 45 -281 63 -392 33
-152 -40 -310 -169 -377 -308 -103 -211 -83 -437 55 -619 84 -111 224 -203
346 -228 112 -23 286 -7 360 32 36 20 52 16 52 -12 0 -53 62 -142 126 -181 19
-12 34 -26 34 -31 0 -7 -49 -34 -80 -44 -3 -1 -16 -6 -30 -12 -125 -53 -274
-70 -448 -53 -127 13 -191 31 -291 83 -102 53 -163 101 -253 196 -105 111
-163 216 -212 380 -25 85 -22 361 5 460 23 84 79 207 118 261 88 122 225 241
346 300 133 65 162 73 295 86 30 3 57 7 59 10 8 8 61 4 164 -12z m501 -235
c75 -59 75 -188 -1 -243 -36 -26 -109 -32 -156 -12 -53 23 -77 67 -77 140 0
55 3 61 39 97 37 37 42 39 103 39 51 0 71 -5 92 -21z m-18 -1041 c81 -39 99
-173 34 -239 -29 -29 -58 -39 -110 -39 -90 0 -140 54 -140 152 0 45 5 59 31
91 46 55 117 69 185 35z"/>
</g>
</svg>
